<svg width="32" height="32" viewBox="0 0 32 32" fill="none" xmlns="http://www.w3.org/2000/svg">
  <defs>
    <linearGradient id="grad1" x1="0%" y1="0%" x2="100%" y2="100%">
      <stop offset="0%" style="stop-color:#667eea;stop-opacity:1" />
      <stop offset="100%" style="stop-color:#764ba2;stop-opacity:1" />
    </linearGradient>
  </defs>
  
  <!-- Background Circle -->
  <circle cx="16" cy="16" r="16" fill="url(#grad1)"/>
  
  <!-- Network Icon -->
  <g fill="white">
    <!-- Central Hub -->
    <circle cx="16" cy="16" r="2.5" fill="white"/>
    
    <!-- Connection Lines -->
    <line x1="16" y1="13.5" x2="16" y2="8" stroke="white" stroke-width="1.5" stroke-linecap="round"/>
    <line x1="16" y1="18.5" x2="16" y2="24" stroke="white" stroke-width="1.5" stroke-linecap="round"/>
    <line x1="13.5" y1="16" x2="8" y2="16" stroke="white" stroke-width="1.5" stroke-linecap="round"/>
    <line x1="18.5" y1="16" x2="24" y2="16" stroke="white" stroke-width="1.5" stroke-linecap="round"/>
    
    <!-- Corner Lines -->
    <line x1="17.8" y1="14.2" x2="22" y2="10" stroke="white" stroke-width="1.2" stroke-linecap="round"/>
    <line x1="14.2" y1="14.2" x2="10" y2="10" stroke="white" stroke-width="1.2" stroke-linecap="round"/>
    <line x1="17.8" y1="17.8" x2="22" y2="22" stroke="white" stroke-width="1.2" stroke-linecap="round"/>
    <line x1="14.2" y1="17.8" x2="10" y2="22" stroke="white" stroke-width="1.2" stroke-linecap="round"/>
    
    <!-- End Nodes -->
    <circle cx="16" cy="8" r="1.5" fill="white"/>
    <circle cx="16" cy="24" r="1.5" fill="white"/>
    <circle cx="8" cy="16" r="1.5" fill="white"/>
    <circle cx="24" cy="16" r="1.5" fill="white"/>
    <circle cx="22" cy="10" r="1.2" fill="white"/>
    <circle cx="10" cy="10" r="1.2" fill="white"/>
    <circle cx="22" cy="22" r="1.2" fill="white"/>
    <circle cx="10" cy="22" r="1.2" fill="white"/>
  </g>
</svg>